<svg xmlns="http://www.w3.org/2000/svg" viewBox="0 0 200 40" width="200" height="40">
  <style>
    .logo-text { font-family: 'Arial', sans-serif; font-weight: bold; }
    .fear { fill: #343161; }
    .lock { fill: #00C9A5; }
  </style>
  <text x="10" y="30" class="logo-text fear" font-size="24">FEAR</text>
  <text x="85" y="30" class="logo-text lock" font-size="24">LOCK</text>
  <path d="M180 14h-2v-4c0-3.3-2.7-6-6-6s-6 2.7-6 6v4h-2c-1.1 0-2 .9-2 2v14c0 1.1.9 2 2 2h16c1.1 0 2-.9 2-2V16c0-1.1-.9-2-2-2zm-8 11.7c-1.5 0-2.7-1.2-2.7-2.7s1.2-2.7 2.7-2.7 2.7 1.2 2.7 2.7-1.2 2.7-2.7 2.7zM174 14h-4v-4c0-1.1.9-2 2-2s2 .9 2 2v4z" fill="#00C9A5"/>
</svg> 